<svg id="Layer_1" data-name="Layer 1" xmlns="http://www.w3.org/2000/svg" viewBox="0 0 250 152.28"><title>Keyboard</title><path d="M225.47,48.86H24.53A24.6,24.6,0,0,0,0,73.39V176.61a24.6,24.6,0,0,0,24.53,24.53H225.47A24.6,24.6,0,0,0,250,176.61V73.39A24.6,24.6,0,0,0,225.47,48.86ZM155.85,81.07a9.25,9.25,0,0,1,9.25-9.25h7.8a9.25,9.25,0,0,1,9.25,9.25v7.8a9.25,9.25,0,0,1-9.25,9.25h-7.8a9.25,9.25,0,0,1-9.25-9.25Zm-4.95,29.44a9.26,9.26,0,0,1,9.25,9.26v7.79a9.26,9.26,0,0,1-9.25,9.26h-7.8a9.26,9.26,0,0,1-9.25-9.26v-7.79a9.26,9.26,0,0,1,9.25-9.26ZM111.85,81.07a9.25,9.25,0,0,1,9.25-9.25h7.8a9.25,9.25,0,0,1,9.25,9.25v7.8a9.25,9.25,0,0,1-9.25,9.25h-7.8a9.25,9.25,0,0,1-9.25-9.25Zm-4.95,29.44a9.26,9.26,0,0,1,9.25,9.26v7.79a9.26,9.26,0,0,1-9.25,9.26H99.1a9.26,9.26,0,0,1-9.25-9.26v-7.79a9.26,9.26,0,0,1,9.25-9.26ZM67.85,81.07a9.25,9.25,0,0,1,9.25-9.25h7.8a9.25,9.25,0,0,1,9.25,9.25v7.8a9.25,9.25,0,0,1-9.25,9.25H77.1a9.25,9.25,0,0,1-9.25-9.25Zm-44,0a9.25,9.25,0,0,1,9.25-9.25h7.8a9.25,9.25,0,0,1,9.25,9.25v7.8a9.25,9.25,0,0,1-9.25,9.25H33.1a9.25,9.25,0,0,1-9.25-9.25Zm26.3,87.86a9.25,9.25,0,0,1-9.25,9.25H33.1a9.25,9.25,0,0,1-9.25-9.25v-7.8a9.25,9.25,0,0,1,9.25-9.25h7.8a9.25,9.25,0,0,1,9.25,9.25Zm5-32.11a9.26,9.26,0,0,1-9.25-9.26v-7.79a9.26,9.26,0,0,1,9.25-9.26h7.8a9.26,9.26,0,0,1,9.25,9.26v7.79a9.26,9.26,0,0,1-9.25,9.26Zm127.05,31.39a10,10,0,0,1-10,10H77.82a10,10,0,0,1-10-10v-6.35a10,10,0,0,1,10-10h94.36a10,10,0,0,1,10,10Zm4.95-31.39a9.26,9.26,0,0,1-9.25-9.26v-7.79a9.26,9.26,0,0,1,9.25-9.26h7.8a9.26,9.26,0,0,1,9.25,9.26v7.79a9.26,9.26,0,0,1-9.25,9.26Zm39.05,32.11a9.25,9.25,0,0,1-9.25,9.25h-7.8a9.25,9.25,0,0,1-9.25-9.25v-7.8a9.25,9.25,0,0,1,9.25-9.25h7.8a9.25,9.25,0,0,1,9.25,9.25Zm0-80.06a9.25,9.25,0,0,1-9.25,9.25h-7.8a9.25,9.25,0,0,1-9.25-9.25v-7.8a9.25,9.25,0,0,1,9.25-9.25h7.8a9.25,9.25,0,0,1,9.25,9.25Z" transform="translate(0 -48.86)"/></svg>